# Blender v2.83.3 OBJ File: 'cube.blend'
# www.blender.org
o Cube
v 1.000000 1.000000 -1.000000
v 1.000000 -1.000000 -1.000000
v 1.000000 1.000000 1.000000
v 1.000000 -1.000000 1.000000
v -1.000000 1.000000 -1.000000
v -1.000000 -1.000000 -1.000000
v -1.000000 1.000000 1.000000
v -1.000000 -1.000000 1.000000
vt 0.983039 0.982997
vt 0.011753 0.011712
vt 0.983039 0.011712
vt 0.007524 0.007524
vt 0.992476 0.992476
vt 0.007525 0.992476
vt -0.004611 0.997903
vt 0.992012 0.001279
vt 0.992012 0.997903
vt 0.009917 0.986075
vt 0.988992 0.006999
vt 0.988992 0.986075
vt 0.003290 0.996847
vt 0.997802 0.002335
vt 0.997802 0.996847
vt 0.003089 0.994307
vt 0.991703 0.005693
vt 0.991703 0.994307
vt 0.011753 0.982997
vt 0.992476 0.007524
vt -0.004611 0.001280
vt 0.009917 0.006999
vt 0.003289 0.002335
vt 0.003089 0.005693
vn 0.0000 1.0000 0.0000
vn 0.0000 0.0000 1.0000
vn -1.0000 0.0000 0.0000
vn 0.0000 -1.0000 0.0000
vn 1.0000 0.0000 0.0000
vn 0.0000 0.0000 -1.0000
s off
f 5/1/1 3/2/1 1/3/1
f 3/4/2 8/5/2 4/6/2
f 7/7/3 6/8/3 8/9/3
f 2/10/4 8/11/4 6/12/4
f 1/13/5 4/14/5 2/15/5
f 5/16/6 2/17/6 6/18/6
f 5/1/1 7/19/1 3/2/1
f 3/4/2 7/20/2 8/5/2
f 7/7/3 5/21/3 6/8/3
f 2/10/4 4/22/4 8/11/4
f 1/13/5 3/23/5 4/14/5
f 5/16/6 1/24/6 2/17/6
